<svg width="360" height="360" viewBox="0 0 360 360" fill="none" xmlns="http://www.w3.org/2000/svg">
<rect width="360" height="360" rx="180" fill="white"/>
<path d="M309.65 187.31L234.53 262.43H234.51C232.12 264.14 229.18 265.14 226.02 265.14C218.16 265.14 211.75 258.97 211.38 251.2V190.84H211.35C211.36 190.72 211.36 190.6 211.36 190.48C211.36 182.82 205.15 176.61 197.48 176.61C193.64 176.61 190.16 178.17 187.65 180.69L109.6 259.12L106.44 262.3L106.41 262.33C103.99 264.1 101.01 265.14 97.78 265.14C90.47 265.14 84.41 259.8 83.3 252.8V190.24L83.21 190.21C83.19 182.42 76.87 176.11 69.07 176.11C64.82 176.11 61 177.99 58.42 180.96L51 173.24L52.45 171.78L124.43 99.8L124.69 99.53C127.36 96.74 131.12 95 135.29 95C143.39 95 149.95 101.56 149.95 109.66V169.03C149.95 170.14 150.08 171.22 150.33 172.25C151.78 178.36 157.28 182.91 163.83 182.91C167.34 182.91 170.16 181.96 172.6 179.82H172.61L172.71 179.72C173.08 179.39 173.44 179.03 173.78 178.65L253.47 98.95L253.49 98.93C256.11 96.47 259.66 95 263.54 95C271.64 95 278.2 101.56 278.2 109.66V166.07C278.2 167.04 278.24 168 278.32 168.97C278.35 169.22 278.37 169.48 278.38 169.81C278.73 176.91 284.15 182.88 291.24 183.37C295.51 183.66 298.97 182.09 301.7 179.37L309.65 187.31Z" fill="#012EDD"/>
</svg>
