<svg width="878" height="171" viewBox="0 0 878 171" fill="none" xmlns="http://www.w3.org/2000/svg">
<path d="M258.65 92.31L183.53 167.43H183.51C181.12 169.14 178.18 170.14 175.02 170.14C167.16 170.14 160.75 163.97 160.38 156.2V95.84H160.35C160.36 95.72 160.36 95.6 160.36 95.48C160.36 87.82 154.15 81.61 146.48 81.61C142.64 81.61 139.16 83.17 136.65 85.69L58.6 164.12L55.44 167.3L55.41 167.33C52.99 169.1 50.01 170.14 46.78 170.14C39.47 170.14 33.41 164.8 32.3 157.8V95.24L32.21 95.21C32.19 87.42 25.87 81.11 18.07 81.11C13.82 81.11 10 82.99 7.42 85.96L0 78.24L1.45 76.78L73.43 4.8L73.69 4.53C76.36 1.74 80.12 0 84.29 0C92.39 0 98.95 6.56 98.95 14.66V74.03C98.95 75.14 99.08 76.22 99.33 77.25C100.78 83.36 106.28 87.91 112.83 87.91C116.34 87.91 119.16 86.96 121.6 84.82H121.61L121.71 84.72C122.08 84.39 122.44 84.03 122.78 83.65L202.47 3.95L202.49 3.93C205.11 1.47 208.66 0 212.54 0C220.64 0 227.2 6.56 227.2 14.66V71.07C227.2 72.04 227.24 73 227.32 73.97C227.35 74.22 227.37 74.48 227.38 74.81C227.73 81.91 233.15 87.88 240.24 88.37C244.51 88.66 247.97 87.09 250.7 84.37L258.65 92.31Z" fill="#FFFFFF"/>
<path d="M834.333 134.627C847.75 134.627 858.236 125.386 858.236 113.212V105.837L835.221 107.259C823.758 108.059 817.272 113.124 817.272 121.121C817.272 129.296 824.025 134.627 834.333 134.627ZM829.001 149.822C810.696 149.822 797.901 138.448 797.901 121.654C797.901 105.304 810.43 95.263 832.644 94.019L858.236 92.5084V85.3108C858.236 74.9144 851.216 68.6943 839.486 68.6943C828.379 68.6943 821.448 74.0258 819.76 82.3785H801.633C802.699 65.4954 817.094 53.0552 840.197 53.0552C862.856 53.0552 877.34 65.0511 877.34 83.8002V148.223H858.946V132.85H858.502C853.082 143.247 841.264 149.822 829.001 149.822Z" fill="#FFFFFF"/>
<path d="M792.569 54.7437L759.069 148.223H738.454L704.777 54.7437H725.214L748.673 129.474H749.028L772.487 54.7437H792.569Z" fill="#FFFFFF"/>
<path d="M656.082 150C629.336 150 611.742 131.606 611.742 101.483C611.742 71.4489 629.425 53.0552 656.082 53.0552C682.74 53.0552 700.423 71.4489 700.423 101.483C700.423 131.606 682.829 150 656.082 150ZM656.082 134.183C671.188 134.183 680.874 122.276 680.874 101.483C680.874 80.779 671.099 68.872 656.082 68.872C641.065 68.872 631.291 80.779 631.291 101.483C631.291 122.276 641.065 134.183 656.082 134.183Z" fill="#FFFFFF"/>
<path d="M563.847 113.835H563.403L542.699 148.223H521.906L552.74 101.572L522.35 54.7437H543.854L564.292 88.5987H564.647L584.818 54.7437H605.966L575.31 100.95L605.611 148.223H584.462L563.847 113.835Z" fill="#FFFFFF"/>
<path d="M473.389 68.5166C459.972 68.5166 450.553 78.7353 449.575 92.8638H496.315C495.871 78.5576 486.807 68.5166 473.389 68.5166ZM496.226 120.765H514.442C511.776 137.826 495.604 150 474.189 150C446.732 150 430.115 131.428 430.115 101.927C430.115 72.604 446.998 53.0552 473.389 53.0552C499.336 53.0552 515.508 71.36 515.508 99.7059V106.281H449.486V107.437C449.486 123.698 459.261 134.45 474.633 134.45C485.563 134.45 493.649 128.94 496.226 120.765Z" fill="#FFFFFF"/>
<path d="M327.661 148.223H308.29V20H326.328L392.794 114.545H393.505V20H412.877V148.223H394.927L328.461 53.7662H327.661V148.223Z" fill="#FFFFFF"/>
</svg>
